
<svg xmlns="http://www.w3.org/2000/svg" width="26" height="26" fill= "none" viewBox="0 0 26 26">
  <path id="Selection" stroke="black"
        d="M 2610.00,0.00
           C 2610.00,0.00 3355.00,0.00 3355.00,0.00
             3355.00,0.00 3355.00,119.00 3355.00,119.00
             3355.00,119.00 3483.00,119.00 3483.00,119.00
             3483.00,119.00 3483.00,240.00 3483.00,240.00
             3483.00,240.00 3611.00,240.00 3611.00,240.00
             3611.00,240.00 3611.00,368.00 3611.00,368.00
             3611.00,368.00 3732.00,368.00 3732.00,368.00
             3732.00,368.00 3732.00,737.00 3732.00,737.00
             3732.00,737.00 3860.00,737.00 3860.00,737.00
             3860.00,737.00 3860.00,865.00 3860.00,865.00
             3860.00,865.00 3980.00,865.00 3980.00,865.00
             3980.00,865.00 3980.00,986.00 3980.00,986.00
             3980.00,986.00 3860.00,986.00 3860.00,986.00
             3860.00,986.00 3860.00,1234.00 3860.00,1234.00
             3860.00,1234.00 3732.00,1234.00 3732.00,1234.00
             3732.00,1234.00 3732.00,1362.00 3732.00,1362.00
             3732.00,1362.00 3107.00,1362.00 3107.00,1362.00
             3107.00,1362.00 3107.00,1476.00 3107.00,1476.00
             3107.00,1476.00 2489.00,1476.00 2489.00,1476.00
             2489.00,1476.00 2489.00,1362.00 2489.00,1362.00
             2489.00,1362.00 2241.00,1362.00 2241.00,1362.00
             2241.00,1362.00 2241.00,1234.00 2241.00,1234.00
             2241.00,1234.00 2113.00,1234.00 2113.00,1234.00
             2113.00,1234.00 2113.00,986.00 2113.00,986.00
             2113.00,986.00 1992.00,986.00 1992.00,986.00
             1992.00,986.00 1992.00,865.00 1992.00,865.00
             1992.00,865.00 1864.00,865.00 1864.00,865.00
             1864.00,865.00 1864.00,489.00 1864.00,489.00
             1864.00,489.00 1992.00,489.00 1992.00,489.00
             1992.00,489.00 1992.00,368.00 1992.00,368.00
             1992.00,368.00 2241.00,368.00 2241.00,368.00
             2241.00,368.00 2241.00,240.00 2241.00,240.00
             2241.00,240.00 2361.00,240.00 2361.00,240.00
             2361.00,240.00 2361.00,119.00 2361.00,119.00
             2361.00,119.00 2610.00,119.00 2610.00,119.00
             2610.00,119.00 2610.00,0.00 2610.00,0.00 Z
           M 2986.00,119.00
           C 2986.00,119.00 2610.00,119.00 2610.00,119.00
             2610.00,119.00 2610.00,240.00 2610.00,240.00
             2610.00,240.00 2361.00,240.00 2361.00,240.00
             2361.00,240.00 2361.00,368.00 2361.00,368.00
             2361.00,368.00 2489.00,368.00 2489.00,368.00
             2489.00,368.00 2489.00,489.00 2489.00,489.00
             2489.00,489.00 2610.00,489.00 2610.00,489.00
             2610.00,489.00 2610.00,617.00 2610.00,617.00
             2610.00,617.00 2738.00,617.00 2738.00,617.00
             2738.00,617.00 2738.00,865.00 2738.00,865.00
             2738.00,865.00 2610.00,865.00 2610.00,865.00
             2610.00,865.00 2610.00,986.00 2610.00,986.00
             2610.00,986.00 2489.00,986.00 2489.00,986.00
             2489.00,986.00 2489.00,1114.00 2489.00,1114.00
             2489.00,1114.00 2241.00,1114.00 2241.00,1114.00
             2241.00,1114.00 2241.00,1234.00 2241.00,1234.00
             2241.00,1234.00 2489.00,1234.00 2489.00,1234.00
             2489.00,1234.00 2489.00,1362.00 2489.00,1362.00
             2489.00,1362.00 3107.00,1362.00 3107.00,1362.00
             3107.00,1362.00 3107.00,1234.00 3107.00,1234.00
             3107.00,1234.00 2986.00,1234.00 2986.00,1234.00
             2986.00,1234.00 2986.00,1114.00 2986.00,1114.00
             2986.00,1114.00 2858.00,1114.00 2858.00,1114.00
             2858.00,1114.00 2858.00,986.00 2858.00,986.00
             2858.00,986.00 2986.00,986.00 2986.00,986.00
             2986.00,986.00 2986.00,865.00 2986.00,865.00
             2986.00,865.00 3107.00,865.00 3107.00,865.00
             3107.00,865.00 3107.00,737.00 3107.00,737.00
             3107.00,737.00 2986.00,737.00 2986.00,737.00
             2986.00,737.00 2986.00,617.00 2986.00,617.00
             2986.00,617.00 2858.00,617.00 2858.00,617.00
             2858.00,617.00 2858.00,240.00 2858.00,240.00
             2858.00,240.00 2986.00,240.00 2986.00,240.00
             2986.00,240.00 2986.00,119.00 2986.00,119.00 Z
           M 3355.00,119.00
           C 3355.00,119.00 3107.00,119.00 3107.00,119.00
             3107.00,119.00 3107.00,240.00 3107.00,240.00
             3107.00,240.00 2986.00,240.00 2986.00,240.00
             2986.00,240.00 2986.00,368.00 2986.00,368.00
             2986.00,368.00 3107.00,368.00 3107.00,368.00
             3107.00,368.00 3107.00,617.00 3107.00,617.00
             3107.00,617.00 3235.00,617.00 3235.00,617.00
             3235.00,617.00 3235.00,737.00 3235.00,737.00
             3235.00,737.00 3611.00,737.00 3611.00,737.00
             3611.00,737.00 3611.00,368.00 3611.00,368.00
             3611.00,368.00 3483.00,368.00 3483.00,368.00
             3483.00,368.00 3483.00,617.00 3483.00,617.00
             3483.00,617.00 3355.00,617.00 3355.00,617.00
             3355.00,617.00 3355.00,368.00 3355.00,368.00
             3355.00,368.00 3483.00,368.00 3483.00,368.00
             3483.00,368.00 3483.00,240.00 3483.00,240.00
             3483.00,240.00 3355.00,240.00 3355.00,240.00
             3355.00,240.00 3355.00,119.00 3355.00,119.00 Z
           M 2489.00,489.00
           C 2489.00,489.00 1992.00,489.00 1992.00,489.00
             1992.00,489.00 1992.00,737.00 1992.00,737.00
             1992.00,737.00 2113.00,737.00 2113.00,737.00
             2113.00,737.00 2113.00,865.00 2113.00,865.00
             2113.00,865.00 2489.00,865.00 2489.00,865.00
             2489.00,865.00 2489.00,737.00 2489.00,737.00
             2489.00,737.00 2610.00,737.00 2610.00,737.00
             2610.00,737.00 2610.00,617.00 2610.00,617.00
             2610.00,617.00 2489.00,617.00 2489.00,617.00
             2489.00,617.00 2489.00,489.00 2489.00,489.00 Z
           M 3860.00,865.00
           C 3860.00,865.00 3107.00,865.00 3107.00,865.00
             3107.00,865.00 3107.00,986.00 3107.00,986.00
             3107.00,986.00 3860.00,986.00 3860.00,986.00
             3860.00,986.00 3860.00,865.00 3860.00,865.00 Z
           M 3107.00,986.00
           C 3107.00,986.00 2986.00,986.00 2986.00,986.00
             2986.00,986.00 2986.00,1114.00 2986.00,1114.00
             2986.00,1114.00 3107.00,1114.00 3107.00,1114.00
             3107.00,1114.00 3107.00,986.00 3107.00,986.00 Z
           M 3732.00,1114.00
           C 3732.00,1114.00 3107.00,1114.00 3107.00,1114.00
             3107.00,1114.00 3107.00,1234.00 3107.00,1234.00
             3107.00,1234.00 3732.00,1234.00 3732.00,1234.00
             3732.00,1234.00 3732.00,1114.00 3732.00,1114.00 Z" fill="#fff"/>
</svg>
